<svg width="143" height="169" viewBox="0 0 143 169" fill="none" xmlns="http://www.w3.org/2000/svg">
<path d="M72.4184 0C81.5975 14.8444 91.4801 29.3093 96.9134 46.158C98.5266 51.1621 101.217 49.111 103.605 46.9801C111.449 39.98 119.988 33.9394 128.917 28.457C135.74 24.2668 137.147 24.8194 138.728 32.3282C147.195 72.6052 140.588 109.245 112.501 140.602C105.037 148.936 96.4489 155.884 86.1211 160.94C90.6337 151.446 93.61 141.312 101.349 133.657C123.783 111.463 132.432 84.5543 128.103 53.3589C127.155 46.5155 126.221 46.191 120.356 50.2053C118.822 51.2556 117.443 52.5533 115.854 53.5019C105.219 59.8586 102.036 68.393 103.133 81.2962C105.801 112.646 94.6873 140.3 75.8922 165.053C72.9131 168.974 70.36 170.016 66.7103 165.361C45.1257 137.847 35.6251 106.847 39.5523 71.9453C39.9865 68.074 39.2115 65.2476 36.5155 62.5201C31.7473 57.6948 26.4735 53.5156 21.0759 49.4629C17.0003 46.4 14.9006 47.5658 14.2438 52.5066C10.1105 83.559 18.0144 110.803 40.2778 133.129C47.9564 140.828 50.3144 151.028 55.3656 160.126C46.8791 156.607 40.2668 150.86 34.0806 144.729C1.9977 112.932 -5.63689 74.472 3.72359 31.4099C5.01526 25.4711 7.59585 24.8304 12.397 27.8658C21.6531 33.7195 30.7497 39.815 38.8597 47.1781C43.1882 51.1071 44.4304 49.7159 46.0464 44.951C51.6335 28.4735 60.1201 13.5411 71.025 0H72.4184ZM54.8682 62.4514C55.0661 63.2322 55.0715 64.2633 55.547 64.9891C60.623 72.7674 65.5176 80.6089 69.2277 89.2037C70.8546 92.9677 72.4486 90.1028 73.2374 88.1946C76.4555 80.4136 80.7813 73.2898 85.6401 66.4601C86.7532 64.8984 87.5584 63.169 87.0472 61.2416C84.1781 50.3812 79.8908 40.1312 73.6606 30.7528C72.1711 28.5092 70.3215 28.0721 68.7303 30.5053C62.3269 40.2989 57.512 50.8074 54.8682 62.4514ZM63.0359 129.052C65.5698 112.428 61.3238 97.5126 52.4525 83.735C51.3147 99.9431 54.5714 115.12 63.0359 129.052ZM78.3079 130.734C87.028 119.244 92.6893 92.9237 88.6247 84.2656C81.2127 98.6371 77.2278 113.314 78.3079 130.734Z" fill="url(#paint0_linear_1_619)"/>
<defs>
<linearGradient id="paint0_linear_1_619" x1="14.683" y1="41" x2="96.183" y2="168" gradientUnits="userSpaceOnUse">
<stop stop-color="#3183BD"/>
<stop offset="1" stop-color="#DBE7EF" stop-opacity="0.4"/>
</linearGradient>
</defs>
</svg>
